<svg width="562" height="562" viewBox="0 0 562 562" fill="none" xmlns="http://www.w3.org/2000/svg">
<rect width="562" height="562" rx="100" fill="#48DE94"/>
<path d="M448.178 130.34C418.353 111.461 379.267 101.296 335.187 101C325.497 101 316.722 106.815 312.306 116.21L308.184 124.703L306.116 124.378C292.423 122.306 281.063 122.277 280.96 122.277C280.841 122.277 269.556 122.306 255.98 124.378L253.838 124.703L249.924 116.284C245.463 106.859 236.599 101 226.865 101C182.83 101.296 143.773 111.461 113.874 130.34C105.72 135.519 100.772 145.255 101.008 155.686C101.717 177.347 105.174 219.175 119.96 255.751C124.097 265.96 133.359 272.589 143.61 272.589C144.955 272.589 146.299 272.559 147.628 272.559C147.776 273.491 147.909 274.157 148.042 274.956C157.407 335.974 175.252 394.477 185.016 423.877C187.512 431.157 192.683 437.016 199.241 440.019C208.651 444.473 235.477 455.244 258.418 460.216C266.055 461.977 273.647 460.379 278.906 454.327L281.048 451.856L283.22 454.327C287.134 458.781 291.846 461 297.622 461C299.498 461 302.852 460.393 303.915 460.171C326.649 455.244 353.49 444.503 362.929 440.049C369.414 437.045 374.54 431.127 377.036 423.803C386.771 394.759 404.541 336.803 414.025 274.956L414.409 272.559C415.34 272.574 418.028 272.589 418.471 272.589C428.59 272.589 437.896 265.96 442.136 255.751C448.798 239.224 453.85 219.782 457.174 197.928C459.951 179.3 460.734 163.454 460.985 155.686C461.31 145.225 456.391 135.519 448.163 130.34H448.178ZM428.9 247.968C426.655 253.576 419.875 256.106 414.675 252.895C393.019 239.327 365.44 211.526 350.609 188.222C349.442 186.447 346.872 185.514 345.025 186.905L341.451 189.657C339.205 191.477 338.57 194.614 339.988 196.863C359.812 227.624 378.366 244.861 395.471 258.858C398.47 261.181 399.933 265.072 399.356 268.919C392.975 314.535 380.655 364.96 362.766 418.817C361.836 421.524 359.989 423.625 357.596 424.706C347.684 429.337 323.562 439.265 303.088 443.585C298.065 444.636 293.235 441.351 291.817 436.483C290.177 430.343 288.73 423.951 287.755 418.462L286.41 410.679C285.657 406.181 287.799 401.831 291.714 399.863C298.73 396.371 305.082 391.045 309.277 384.416C311.39 381.161 316.767 372.846 310.991 370.39C304.358 367.564 292.674 365.596 280.635 365.241C268.728 365.566 257.694 367.49 251.032 370.419C246.467 372.417 249.495 378.483 251.032 381.487C255.197 389.55 262.362 395.72 270.368 399.834C274.224 401.831 276.395 406.285 275.686 410.635C275.361 412.78 274.903 415.458 274.297 418.462C273.086 424.809 271.698 430.875 270.161 436.483C268.906 441.07 263.868 444.739 259.008 443.659C233.675 438.199 205.918 425.238 204.81 424.735C202.314 423.67 200.467 421.554 199.566 418.817C181.22 363.717 169.21 314.713 162.799 269.023C162.193 265.131 163.7 261.24 166.61 258.961C183.79 244.905 202.417 227.668 222.167 196.966C223.556 194.717 222.906 191.507 220.734 189.761L217.248 187.053C215.357 185.588 212.787 186.402 211.576 188.296C196.686 211.6 169.107 239.446 147.407 252.999C142.281 256.209 135.545 253.531 133.3 248.116C118.513 211.289 116.12 166.99 115.736 154.28C115.632 150.404 117.508 146.749 120.655 144.826C148.337 127.381 184.824 117.956 226.23 117.675C230.041 117.675 233.497 119.924 235.211 123.564C235.211 123.564 243.291 140.476 243.321 140.505C244.177 142.295 245.891 143.257 247.856 143.006C264.179 139.292 280.31 139.188 281.019 139.188C281.728 139.188 298.051 139.292 314.3 143.006C316.191 143.435 318.052 142.148 318.864 140.476L326.885 123.667C328.525 120.057 332.085 117.734 336 117.734C377.199 118.459 414.645 128.062 441.501 144.826C444.603 146.749 446.464 150.404 446.39 154.28C445.814 170.704 443.037 212.709 428.9 247.968Z" fill="#151615"/>
<path d="M441.501 144.825C414.645 128.062 377.199 118.459 336 117.734C332.085 117.734 328.525 120.057 326.885 123.667L318.864 140.475C318.052 142.147 316.191 143.435 314.3 143.005C298.051 139.292 281.698 139.188 281.019 139.188C280.339 139.188 264.179 139.292 247.856 143.005C245.891 143.257 244.178 142.295 243.321 140.505C243.291 140.475 235.211 123.564 235.211 123.564C233.497 119.924 230.041 117.675 226.23 117.675C184.824 117.956 148.337 127.381 120.655 144.825C117.508 146.749 115.632 150.403 115.736 154.28C116.12 166.99 118.513 211.289 133.3 248.116C135.545 253.531 142.281 256.209 147.407 252.998C169.107 239.445 196.686 211.599 211.576 188.296C212.787 186.402 215.358 185.588 217.248 187.053L220.735 189.761C222.906 191.507 223.556 194.717 222.167 196.966C202.417 227.668 183.79 244.905 166.61 258.961C163.7 261.24 162.193 265.131 162.799 269.022C169.21 314.712 181.22 363.716 199.566 418.817C200.467 421.554 202.314 423.67 204.81 424.735C205.918 425.238 233.675 438.199 259.009 443.659C263.868 444.739 268.906 441.07 270.161 436.483C271.698 430.875 273.086 424.809 274.297 418.461C274.903 415.458 275.361 412.78 275.686 410.634C276.395 406.284 274.224 401.831 270.368 399.833C262.362 395.72 255.197 389.55 251.032 381.486C249.495 378.483 246.467 372.416 251.032 370.419C257.694 367.489 268.728 365.566 280.635 365.24C292.674 365.596 304.358 367.563 310.991 370.389C316.767 372.846 311.39 381.161 309.277 384.416C305.082 391.045 298.73 396.371 291.714 399.863C287.799 401.831 285.657 406.181 286.41 410.679L287.755 418.461C288.73 423.951 290.177 430.343 291.817 436.483C293.235 441.351 298.065 444.635 303.088 443.585C323.562 439.265 347.684 429.336 357.596 424.705C359.989 423.625 361.836 421.524 362.766 418.817C380.655 364.959 392.975 314.535 399.356 268.919C399.933 265.072 398.47 261.181 395.471 258.858C378.366 244.861 359.812 227.623 339.988 196.863C338.57 194.614 339.205 191.477 341.451 189.657L345.025 186.905C346.872 185.514 349.442 186.446 350.609 188.222C365.44 211.525 393.019 239.327 414.675 252.895C419.875 256.106 426.655 253.576 428.9 247.968C443.037 212.709 445.814 170.703 446.39 154.28C446.464 150.403 444.603 146.749 441.501 144.825ZM262.421 316.784L260.353 318.855C258.61 320.601 255.729 320.601 254.016 318.855L244.547 309.327L241.179 305.938C239.096 303.852 235.713 303.837 233.63 305.924L230.144 309.386L220.631 318.855C218.888 320.557 215.993 320.601 214.294 318.855L212.255 316.784C210.483 314.993 210.483 312.167 212.255 310.348L234.177 288.479C234.989 287.651 236.127 287.192 237.309 287.192C238.49 287.192 239.687 287.651 240.544 288.509L262.391 310.392C264.179 312.167 264.179 314.964 262.421 316.784ZM350.136 310.392C351.924 312.167 351.924 314.964 350.166 316.784L348.098 318.855C346.355 320.601 343.474 320.601 341.761 318.855L332.292 309.327L328.924 305.938C326.841 303.852 323.458 303.837 321.376 305.924L317.889 309.386L308.376 318.855C306.633 320.557 303.738 320.601 302.039 318.855L300.001 316.784C298.228 314.993 298.228 312.167 300.001 310.348L321.922 288.479C322.735 287.651 323.872 287.192 325.054 287.192C326.236 287.192 327.432 287.651 328.289 288.509L350.136 310.392Z" fill="white"/>
<path d="M262.421 316.784L260.353 318.856C258.61 320.602 255.729 320.602 254.015 318.856L244.547 309.327L241.179 305.939C239.096 303.853 235.713 303.838 233.63 305.924L230.144 309.386L220.631 318.856C218.888 320.557 215.993 320.602 214.294 318.856L212.255 316.784C210.483 314.994 210.483 312.168 212.255 310.348L234.177 288.48C234.989 287.651 236.127 287.192 237.308 287.192C238.49 287.192 239.687 287.651 240.543 288.509L262.391 310.392C264.179 312.168 264.179 314.964 262.421 316.784Z" fill="#151615"/>
<path d="M350.166 316.784L348.098 318.856C346.355 320.602 343.474 320.602 341.761 318.856L332.292 309.327L328.924 305.939C326.841 303.853 323.458 303.838 321.376 305.924L317.889 309.386L308.376 318.856C306.633 320.557 303.738 320.602 302.039 318.856L300.001 316.784C298.228 314.994 298.228 312.168 300.001 310.348L321.922 288.48C322.735 287.651 323.872 287.192 325.054 287.192C326.236 287.192 327.432 287.651 328.289 288.509L350.136 310.392C351.924 312.168 351.924 314.964 350.166 316.784Z" fill="#151615"/>
</svg>
