<svg width="545" height="545" viewBox="0 0 545 545" fill="none" xmlns="http://www.w3.org/2000/svg">
<path d="M545 481C545 516.346 516.346 545 481 545H64C28.6538 545 0 516.346 0 481V64C0 28.6538 28.6538 0 64 0H481C516.346 0 545 28.6538 545 64V481ZM327.188 92.3164C317.497 92.3164 308.722 98.131 304.306 107.526L301.099 114.135C300.556 115.254 299.345 115.887 298.116 115.693C284.446 113.625 273.101 113.593 272.96 113.593C272.842 113.593 261.556 113.622 247.98 115.693C246.711 115.886 245.467 115.219 244.925 114.054L241.924 107.601C237.463 98.1758 228.6 92.3167 218.865 92.3164C174.83 92.6123 135.773 102.777 105.875 121.656C97.7209 126.835 92.7715 136.571 93.0078 147.002C93.7169 168.663 97.1743 210.491 111.961 247.066C116.097 257.276 125.359 263.904 135.61 263.904C136.139 263.904 136.668 263.9 137.196 263.894C138.597 263.88 139.812 264.89 140.042 266.271C149.407 327.29 167.251 385.794 177.016 415.193C179.512 422.473 184.683 428.331 191.241 431.335C200.651 435.789 227.477 446.561 250.418 451.532C258.055 453.293 265.648 451.694 270.906 445.643C272.039 444.336 274.078 444.344 275.22 445.643C279.134 450.096 283.846 452.316 289.622 452.316C291.498 452.316 294.851 451.709 295.915 451.487C318.649 446.56 345.489 435.819 354.929 431.365C361.413 428.362 366.54 422.443 369.036 415.119C378.771 386.075 396.542 328.118 406.025 266.271C406.246 264.896 407.443 263.888 408.836 263.897C409.596 263.901 410.269 263.904 410.472 263.904C420.59 263.904 429.896 257.275 434.136 247.066C440.798 230.539 445.85 211.098 449.174 189.244C451.951 170.616 452.734 154.77 452.985 147.002C453.31 136.544 448.393 126.84 440.169 121.66C440.168 121.659 440.168 121.656 440.17 121.656C440.173 121.656 440.173 121.653 440.172 121.652C410.348 102.775 371.264 92.6124 327.188 92.3164ZM218.229 108.991C222.041 108.991 225.497 111.24 227.211 114.88C227.231 114.922 230.534 121.836 232.918 126.817C234.513 130.149 236.191 134.79 239.855 134.321C256.177 130.608 272.307 130.504 273.019 130.504C273.732 130.504 290.053 130.608 306.3 134.321C308.191 134.75 310.052 133.463 310.864 131.791L318.886 114.983C320.525 111.373 324.085 109.05 328 109.05C369.199 109.775 406.646 119.378 433.501 136.142C436.603 138.065 438.464 141.719 438.391 145.596C437.815 162.019 435.037 204.025 420.9 239.284C418.655 244.892 411.874 247.421 406.675 244.211C385.019 230.643 357.44 202.842 342.609 179.538C341.442 177.763 338.872 176.83 337.025 178.221L333.45 180.974C331.205 182.794 330.57 185.93 331.988 188.179C351.812 218.939 370.366 236.177 387.472 250.174C390.47 252.497 391.933 256.389 391.356 260.235C384.975 305.851 372.655 356.276 354.767 410.133C353.836 412.84 351.989 414.941 349.597 416.021C339.685 420.653 315.562 430.581 295.088 434.901C290.066 435.952 285.236 432.667 283.817 427.799C282.178 421.659 280.73 415.267 279.755 409.777L278.41 401.995C277.657 397.497 279.799 393.147 283.714 391.179C290.73 387.687 297.082 382.361 301.277 375.732C303.39 372.477 308.766 364.162 302.991 361.706C296.359 358.88 284.674 356.912 272.635 356.557C260.729 356.882 249.693 358.806 243.031 361.735C238.467 363.733 241.495 369.799 243.031 372.803C247.197 380.866 254.362 387.036 262.368 391.149C266.223 393.147 268.395 397.6 267.687 401.95C267.362 404.096 266.903 406.774 266.298 409.777C265.087 416.125 263.697 422.191 262.161 427.799C260.906 432.385 255.869 436.055 251.009 434.976C225.677 429.516 197.922 416.556 196.811 416.051C194.314 414.985 192.468 412.87 191.566 410.133C173.22 355.033 161.21 306.029 154.799 260.339C154.193 256.448 155.7 252.556 158.61 250.277C175.79 236.221 194.417 218.984 214.167 188.282C215.555 186.033 214.906 182.823 212.734 181.077L209.248 178.369C207.357 176.905 204.787 177.719 203.576 179.612C188.686 202.916 161.107 230.761 139.407 244.314C134.281 247.525 127.545 244.847 125.3 239.432C110.513 202.605 108.119 158.305 107.735 145.596C107.632 141.719 109.509 138.065 112.655 136.142C140.338 118.697 176.824 109.272 218.229 108.991ZM229.309 278.508C228.127 278.508 226.989 278.966 226.177 279.795L204.256 301.664C202.483 303.484 202.483 306.309 204.256 308.1L206.294 310.171C207.993 311.917 210.888 311.872 212.631 310.171L222.145 300.702L225.631 297.239C227.714 295.154 231.096 295.169 233.179 297.255L246.016 310.171C247.729 311.917 250.609 311.917 252.353 310.171L254.421 308.1C256.178 306.28 256.179 303.483 254.392 301.708L232.544 279.825C231.687 278.967 230.49 278.508 229.309 278.508ZM317.054 278.508C315.872 278.508 314.734 278.966 313.922 279.795L292.001 301.664C290.228 303.484 290.228 306.309 292.001 308.1L294.039 310.171C295.738 311.917 298.633 311.872 300.376 310.171L309.89 300.702L313.376 297.239C315.459 295.154 318.841 295.169 320.924 297.255L333.761 310.171C335.474 311.917 338.355 311.917 340.098 310.171L342.166 308.1C343.924 306.28 343.924 303.483 342.137 301.708L320.289 279.825C319.432 278.967 318.235 278.508 317.054 278.508Z" fill="#D9D9D9"/>
</svg>
