<svg width="32" height="32" viewBox="0 0 32 32" fill="none" xmlns="http://www.w3.org/2000/svg">
<rect width="32" height="32" rx="5.69395" fill="#48DE94"/>
<path d="M25.5191 7.4216C23.8209 6.34661 21.5953 5.76783 19.0855 5.75098C18.5337 5.75098 18.0341 6.08207 17.7826 6.61704L17.5479 7.10062L17.4302 7.08208C16.6505 6.96414 16.0037 6.96245 15.9978 6.96245C15.9911 6.96245 15.3485 6.96414 14.5755 7.08208L14.4535 7.10062L14.2306 6.62125C13.9766 6.0846 13.4719 5.75098 12.9177 5.75098C10.4103 5.76783 8.18644 6.34661 6.48404 7.4216C6.01975 7.71647 5.73798 8.27081 5.75144 8.86476C5.79181 10.0981 5.98863 12.4798 6.83058 14.5624C7.06609 15.1437 7.59346 15.5211 8.17719 15.5211C8.25373 15.5211 8.33027 15.5195 8.40597 15.5195C8.41438 15.5725 8.42195 15.6104 8.42952 15.6559C8.96278 19.1303 9.97883 22.4614 10.5348 24.1354C10.677 24.5499 10.9713 24.8835 11.3448 25.0546C11.8806 25.3082 13.408 25.9215 14.7143 26.2045C15.1491 26.3048 15.5814 26.2138 15.8809 25.8692L16.0028 25.7285L16.1265 25.8692C16.3494 26.1228 16.6177 26.2492 16.9466 26.2492C17.0534 26.2492 17.2443 26.2147 17.3049 26.202C18.5993 25.9215 20.1276 25.3098 20.6651 25.0563C21.0343 24.8852 21.3262 24.5482 21.4683 24.1312C22.0226 22.4774 23.0345 19.1775 23.5745 15.6559L23.5963 15.5195C23.6493 15.5203 23.8024 15.5211 23.8276 15.5211C24.4038 15.5211 24.9337 15.1437 25.1751 14.5624C25.5544 13.6214 25.8421 12.5144 26.0313 11.27C26.1895 10.2093 26.234 9.30706 26.2483 8.86476C26.2668 8.26913 25.9868 7.71647 25.5183 7.4216H25.5191ZM24.4215 14.1193C24.2936 14.4386 23.9075 14.5826 23.6115 14.3998C22.3784 13.6273 20.8081 12.0443 19.9636 10.7174C19.8971 10.6163 19.7508 10.5632 19.6457 10.6424L19.4421 10.7991C19.3143 10.9027 19.2781 11.0813 19.3588 11.2094C20.4876 12.9609 21.544 13.9423 22.518 14.7393C22.6888 14.8716 22.772 15.0932 22.7392 15.3122C22.3759 17.9096 21.6744 20.7807 20.6558 23.8473C20.6028 24.0015 20.4977 24.1211 20.3614 24.1826C19.7971 24.4463 18.4235 25.0116 17.2578 25.2576C16.9718 25.3174 16.6967 25.1304 16.616 24.8532C16.5226 24.5036 16.4402 24.1396 16.3847 23.8271L16.3082 23.3839C16.2653 23.1278 16.3872 22.8801 16.6101 22.7681C17.0096 22.5693 17.3713 22.266 17.6102 21.8886C17.7305 21.7032 18.0366 21.2297 17.7078 21.0899C17.3301 20.929 16.6648 20.8169 15.9793 20.7967C15.3013 20.8152 14.673 20.9248 14.2937 21.0916C14.0338 21.2053 14.2062 21.5507 14.2937 21.7217C14.5309 22.1809 14.9388 22.5322 15.3947 22.7664C15.6142 22.8801 15.7379 23.1337 15.6975 23.3814C15.679 23.5036 15.6529 23.6561 15.6184 23.8271C15.5495 24.1885 15.4704 24.5339 15.3829 24.8532C15.3114 25.1144 15.0246 25.3233 14.7479 25.2618C13.3054 24.9509 11.725 24.2129 11.6619 24.1843C11.5197 24.1236 11.4146 24.0032 11.3633 23.8473C10.3186 20.7099 9.63482 17.9197 9.26978 15.3181C9.2353 15.0965 9.32109 14.875 9.48679 14.7452C10.465 13.9449 11.5256 12.9634 12.6502 11.2153C12.7292 11.0872 12.6922 10.9044 12.5686 10.805L12.3701 10.6508C12.2624 10.5674 12.1161 10.6137 12.0471 10.7216C11.1993 12.0485 9.62893 13.634 8.39335 14.4057C8.10149 14.5885 7.71794 14.436 7.59009 14.1277C6.74815 12.0308 6.61189 9.50841 6.59002 8.78472C6.58413 8.564 6.69095 8.3559 6.87011 8.24638C8.44634 7.25311 10.5239 6.71645 12.8815 6.70044C13.0985 6.70044 13.2953 6.8285 13.3929 7.03575C13.3929 7.03575 13.853 7.9987 13.8546 8.00038C13.9034 8.10232 14.001 8.15708 14.1129 8.14276C15.0423 7.9313 15.9608 7.9254 16.0011 7.9254C16.0415 7.9254 16.9709 7.9313 17.8962 8.14276C18.0038 8.16719 18.1098 8.0939 18.1561 7.9987L18.6128 7.04165C18.7061 6.83608 18.9088 6.70381 19.1317 6.70381C21.4776 6.7451 23.6098 7.29186 25.1389 8.24638C25.3155 8.3559 25.4215 8.564 25.4173 8.78472C25.3845 9.71987 25.2264 12.1117 24.4215 14.1193Z" fill="#151615"/>
<path d="M25.1387 8.24613C23.6096 7.29161 21.4774 6.74485 19.1316 6.70357C18.9087 6.70357 18.706 6.83583 18.6126 7.0414L18.1559 7.99845C18.1096 8.09365 18.0036 8.16694 17.896 8.14251C16.9708 7.93105 16.0396 7.92515 16.001 7.92515C15.9623 7.92515 15.0421 7.93105 14.1127 8.14251C14.0008 8.15683 13.9032 8.10207 13.8545 8.00013C13.8528 7.99845 13.3927 7.0355 13.3927 7.0355C13.2951 6.82825 13.0983 6.7002 12.8813 6.7002C10.5237 6.7162 8.44615 7.25286 6.86992 8.24613C6.69076 8.35566 6.58394 8.56375 6.58983 8.78447C6.6117 9.50816 6.74796 12.0305 7.58991 14.1274C7.71775 14.4358 8.1013 14.5883 8.39316 14.4055C9.62874 13.6338 11.1991 12.0482 12.0469 10.7213C12.1159 10.6135 12.2622 10.5671 12.3699 10.6506L12.5684 10.8047C12.6921 10.9041 12.7291 11.087 12.65 11.215C11.5254 12.9631 10.4648 13.9446 9.4866 14.745C9.3209 14.8747 9.23511 15.0963 9.26959 15.3179C9.63463 17.9194 10.3185 20.7097 11.3631 23.8471C11.4144 24.0029 11.5195 24.1234 11.6617 24.184C11.7248 24.2127 13.3052 24.9507 14.7477 25.2616C15.0244 25.3231 15.3113 25.1141 15.3827 24.853C15.4702 24.5337 15.5493 24.1883 15.6183 23.8268C15.6527 23.6558 15.6788 23.5033 15.6973 23.3812C15.7377 23.1335 15.6141 22.8799 15.3945 22.7662C14.9386 22.532 14.5307 22.1806 14.2935 21.7215C14.206 21.5505 14.0336 21.2051 14.2935 21.0913C14.6729 20.9245 15.3012 20.815 15.9791 20.7965C16.6646 20.8167 17.3299 20.9287 17.7076 21.0896C18.0364 21.2295 17.7303 21.703 17.61 21.8883C17.3711 22.2657 17.0094 22.569 16.6099 22.7678C16.387 22.8799 16.2651 23.1276 16.308 23.3837L16.3845 23.8268C16.44 24.1394 16.5224 24.5033 16.6158 24.853C16.6966 25.1301 16.9716 25.3172 17.2576 25.2574C18.4233 25.0114 19.7969 24.4461 20.3612 24.1824C20.4975 24.1209 20.6026 24.0012 20.6556 23.8471C21.6742 20.7805 22.3757 17.9093 22.7391 15.312C22.7719 15.0929 22.6886 14.8713 22.5178 14.7391C21.5438 13.9421 20.4874 12.9606 19.3587 11.2091C19.2779 11.0811 19.3141 10.9025 19.4419 10.7988L19.6455 10.6421C19.7506 10.5629 19.897 10.616 19.9634 10.7171C20.8079 12.044 22.3782 13.627 23.6113 14.3996C23.9073 14.5824 24.2934 14.4383 24.4213 14.119C25.2262 12.1114 25.3843 9.71962 25.4171 8.78447C25.4213 8.56375 25.3154 8.35566 25.1387 8.24613ZM14.942 18.0374L14.8243 18.1553C14.725 18.2547 14.561 18.2547 14.4634 18.1553L13.9243 17.6128L13.7325 17.4198C13.6139 17.301 13.4213 17.3002 13.3027 17.419L13.1042 17.6161L12.5625 18.1553C12.4633 18.2522 12.2984 18.2547 12.2017 18.1553L12.0856 18.0374C11.9847 17.9354 11.9847 17.7745 12.0856 17.6709L13.3338 16.4257C13.3801 16.3785 13.4448 16.3524 13.5121 16.3524C13.5794 16.3524 13.6475 16.3785 13.6963 16.4274L14.9403 17.6734C15.0421 17.7745 15.0421 17.9337 14.942 18.0374ZM19.9365 17.6734C20.0383 17.7745 20.0383 17.9337 19.9382 18.0374L19.8204 18.1553C19.7212 18.2547 19.5572 18.2547 19.4596 18.1553L18.9204 17.6128L18.7287 17.4198C18.6101 17.301 18.4175 17.3002 18.2989 17.419L18.1004 17.6161L17.5587 18.1553C17.4594 18.2522 17.2946 18.2547 17.1979 18.1553L17.0818 18.0374C16.9808 17.9354 16.9808 17.7745 17.0818 17.6709L18.33 16.4257C18.3762 16.3785 18.441 16.3524 18.5083 16.3524C18.5756 16.3524 18.6437 16.3785 18.6925 16.4274L19.9365 17.6734Z" fill="white"/>
<path d="M14.9421 18.0375L14.8243 18.1554C14.7251 18.2548 14.5611 18.2548 14.4635 18.1554L13.9244 17.6129L13.7326 17.42C13.614 17.3012 13.4214 17.3003 13.3028 17.4191L13.1043 17.6162L12.5626 18.1554C12.4634 18.2523 12.2985 18.2548 12.2018 18.1554L12.0857 18.0375C11.9848 17.9355 11.9848 17.7746 12.0857 17.671L13.3339 16.4258C13.3802 16.3787 13.4449 16.3525 13.5122 16.3525C13.5795 16.3525 13.6476 16.3787 13.6964 16.4275L14.9404 17.6735C15.0422 17.7746 15.0422 17.9339 14.9421 18.0375Z" fill="#151615"/>
<path d="M19.9382 18.0375L19.8204 18.1554C19.7212 18.2548 19.5572 18.2548 19.4596 18.1554L18.9205 17.6129L18.7287 17.42C18.6101 17.3012 18.4175 17.3003 18.2989 17.4191L18.1004 17.6162L17.5587 18.1554C17.4595 18.2523 17.2946 18.2548 17.1979 18.1554L17.0818 18.0375C16.9809 17.9355 16.9809 17.7746 17.0818 17.671L18.33 16.4258C18.3763 16.3787 18.441 16.3525 18.5083 16.3525C18.5756 16.3525 18.6437 16.3787 18.6925 16.4275L19.9365 17.6735C20.0383 17.7746 20.0383 17.9339 19.9382 18.0375Z" fill="#151615"/>
</svg>
